<?xml version="1.0" encoding="UTF-8" standalone="no"?>
<!DOCTYPE svg PUBLIC "-//W3C//DTD SVG 1.1//EN" "http://www.w3.org/Graphics/SVG/1.1/DTD/svg11.dtd">
<svg width="100%" height="100%" viewBox="0 0 143 98" version="1.1" xmlns="http://www.w3.org/2000/svg" xmlns:xlink="http://www.w3.org/1999/xlink" xml:space="preserve" xmlns:serif="http://www.serif.com/" style="fill-rule:evenodd;clip-rule:evenodd;stroke-linejoin:round;stroke-miterlimit:2;">
    <g transform="matrix(1,0,0,1,-3775,-1598)">
        <g id="LOGO" transform="matrix(0.945964,0,0,1,203.966,-0.282292)">
            <rect x="3775.02" y="1598.28" width="150.526" height="97.378" style="fill:none;"/>
            <g transform="matrix(1.25696,0,0,1.18903,3642.43,969.039)">
                <g transform="matrix(1.67646,0,0,1.67646,-769.814,365.461)">
                    <path d="M522.905,126.305L522.905,125.477C523.601,125.429 524.105,125.249 524.417,124.937C524.729,124.625 524.885,123.881 524.885,122.705L524.885,105.965C524.885,104.789 524.711,104.039 524.363,103.715C524.015,103.391 523.349,103.217 522.365,103.193L522.365,102.365L532.625,102.365L532.625,103.193C531.929,103.217 531.425,103.391 531.113,103.715C530.801,104.039 530.645,104.789 530.645,105.965L530.645,112.337C530.837,112.193 531.071,112.097 531.347,112.049C531.623,112.001 531.953,111.977 532.337,111.977L537.287,111.977C537.935,111.977 538.391,111.869 538.655,111.653C538.919,111.437 539.051,111.005 539.051,110.357L539.051,105.965C539.051,104.789 538.877,104.039 538.529,103.715C538.181,103.391 537.515,103.217 536.531,103.193L536.531,102.365L546.791,102.365L546.791,103.193C546.095,103.217 545.591,103.391 545.279,103.715C544.967,104.039 544.811,104.789 544.811,105.965L544.811,122.705C544.811,123.881 544.991,124.625 545.351,124.937C545.711,125.249 546.371,125.429 547.331,125.477L547.331,126.305L537.071,126.305L537.071,125.477C537.767,125.429 538.271,125.249 538.583,124.937C538.895,124.625 539.051,123.881 539.051,122.705L539.051,113.129C538.859,113.297 538.619,113.405 538.331,113.453C538.043,113.501 537.719,113.525 537.359,113.525L532.409,113.525C531.761,113.525 531.305,113.633 531.041,113.849C530.777,114.065 530.645,114.485 530.645,115.109L530.645,122.705C530.645,123.881 530.825,124.625 531.185,124.937C531.545,125.249 532.205,125.429 533.165,125.477L533.165,126.305L522.905,126.305Z" style="fill:rgb(252,133,0);fill-rule:nonzero;"/>
                </g>
                <g transform="matrix(1.67646,0,0,1.67646,-773.831,365.461)">
                    <path d="M554.909,126.845C553.589,126.845 552.611,126.449 551.975,125.657C551.339,124.865 551.021,123.953 551.021,122.921C551.021,121.337 551.747,120.053 553.199,119.069C554.651,118.085 556.901,117.185 559.949,116.369L559.949,114.461C559.949,113.333 559.715,112.523 559.247,112.031C558.779,111.539 558.125,111.293 557.285,111.293C556.133,111.293 555.179,111.725 554.423,112.589C553.667,113.453 553.145,114.617 552.857,116.081L552.029,116.081L552.029,110.897C552.845,110.489 553.907,110.105 555.215,109.745C556.523,109.385 557.945,109.205 559.481,109.205C563.633,109.205 565.709,110.813 565.709,114.029L565.709,121.877C565.709,122.429 565.781,122.855 565.925,123.155C566.069,123.455 566.357,123.605 566.789,123.605C567.029,123.605 567.299,123.551 567.599,123.443C567.899,123.335 568.217,123.125 568.553,122.813L569.129,123.389C568.601,124.493 567.905,125.315 567.041,125.855C566.177,126.395 565.193,126.665 564.089,126.665C562.913,126.665 562.007,126.431 561.371,125.963C560.735,125.495 560.285,124.817 560.021,123.929L559.949,123.929C559.397,124.889 558.665,125.615 557.753,126.107C556.841,126.599 555.893,126.845 554.909,126.845ZM557.717,123.605C558.197,123.605 558.623,123.491 558.995,123.263C559.367,123.035 559.685,122.777 559.949,122.489L559.949,117.809C558.845,118.121 558.011,118.529 557.447,119.033C556.883,119.537 556.511,120.041 556.331,120.545C556.151,121.049 556.061,121.469 556.061,121.805C556.061,122.309 556.205,122.735 556.493,123.083C556.781,123.431 557.189,123.605 557.717,123.605Z" style="fill:rgb(255,183,5);fill-rule:nonzero;"/>
                </g>
                <g transform="matrix(1.67646,0,0,1.67646,-773.831,365.461)">
                    <path d="M583.097,97.865C583.193,98.393 583.259,99.017 583.295,99.737C583.331,100.457 583.331,101.171 583.295,101.879C583.259,102.587 583.193,103.217 583.097,103.769L582.269,103.769C582.029,102.281 581.693,101.267 581.261,100.727C580.829,100.187 580.301,99.917 579.677,99.917C578.789,99.917 578.087,100.433 577.571,101.465C577.055,102.497 576.797,104.261 576.797,106.757L576.797,109.745L581.477,109.745L581.477,111.653L578.237,111.653C577.277,111.653 576.797,112.133 576.797,113.093L576.797,122.345C576.797,123.233 576.863,123.899 576.995,124.343C577.127,124.787 577.403,125.081 577.823,125.225C578.243,125.369 578.861,125.453 579.677,125.477L579.677,126.305L569.777,126.305L569.777,125.477C570.185,125.453 570.509,125.369 570.749,125.225C570.989,125.081 571.157,124.787 571.253,124.343C571.349,123.899 571.397,123.233 571.397,122.345L571.397,111.653L569.237,111.653L569.237,109.745L571.397,109.745L571.397,108.017C571.397,105.665 571.913,103.697 572.945,102.113C573.977,100.529 575.375,99.371 577.139,98.639C578.903,97.907 580.889,97.649 583.097,97.865Z" style="fill:rgb(2,48,71);fill-rule:nonzero;"/>
                </g>
                <g transform="matrix(1.67646,0,0,1.67646,-773.831,365.461)">
                    <path d="M595.193,122.633L595.769,123.209C595.505,123.809 595.145,124.385 594.689,124.937C594.233,125.489 593.651,125.945 592.943,126.305C592.235,126.665 591.365,126.845 590.333,126.845C588.629,126.845 587.333,126.341 586.445,125.333C585.557,124.325 585.113,123.029 585.113,121.445L585.113,111.653L582.953,111.653L582.953,109.745L585.113,109.745L585.113,104.885L590.693,104.345C590.621,105.257 590.573,106.157 590.549,107.045C590.525,107.933 590.513,108.833 590.513,109.745L595.193,109.745L595.193,111.653L591.953,111.653C590.993,111.653 590.513,112.133 590.513,113.093L590.513,120.725C590.513,122.645 591.293,123.605 592.853,123.605C593.765,123.605 594.545,123.281 595.193,122.633Z" style="fill:rgb(34,158,188);fill-rule:nonzero;"/>
                </g>
                <g transform="matrix(0.79299,0,0,0.79299,-306.003,504.948)">
                    <text x="520.817px" y="126.305px" style="font-family:'Roboto-Regular', 'Roboto';font-size:36px;fill:rgb(2,48,71);">b<tspan x="539.898px 547.519px 565.475px 573.095px 590.542px " y="126.305px 126.305px 126.305px 126.305px 126.305px ">ielsk</tspan></text>
                    <text x="607.672px" y="126.305px" style="font-family:'Roboto-Regular', 'Roboto';font-size:36px;fill:rgb(2,48,71);">o<tspan x="630.255px " y="126.305px ">.</tspan></text>
                    <text x="641.782px" y="126.305px" style="font-family:'Roboto-Regular', 'Roboto';font-size:36px;fill:rgb(2,48,71);">p<tspan x="660.863px " y="126.305px ">l</tspan></text>
                </g>
            </g>
        </g>
    </g>
</svg>
