<?xml version="1.0" encoding="UTF-8" standalone="no"?><!DOCTYPE svg PUBLIC "-//W3C//DTD SVG 1.1//EN" "http://www.w3.org/Graphics/SVG/1.1/DTD/svg11.dtd"><svg width="100%" height="100%" viewBox="0 0 143 98" version="1.1" xmlns="http://www.w3.org/2000/svg" xmlns:xlink="http://www.w3.org/1999/xlink" xml:space="preserve" xmlns:serif="http://www.serif.com/" style="fill-rule:evenodd;clip-rule:evenodd;stroke-linejoin:round;stroke-miterlimit:2;"><rect id="LOGO" x="0" y="0" width="142.393" height="97.378" style="fill:none;"/><g><path d="M1.577,57.074l0,-1.65c1.388,-0.096 2.392,-0.455 3.014,-1.077c0.622,-0.622 0.933,-2.105 0.933,-4.449l0,-33.369c0,-2.344 -0.347,-3.839 -1.04,-4.485c-0.694,-0.646 -2.022,-0.992 -3.983,-1.04l-0,-1.651l20.452,0l-0,1.651c-1.388,0.048 -2.392,0.394 -3.014,1.04c-0.622,0.646 -0.933,2.141 -0.933,4.485l-0,12.702c0.383,-0.287 0.849,-0.478 1.399,-0.574c0.55,-0.096 1.208,-0.144 1.974,-0.144l9.866,0c1.291,0 2.2,-0.215 2.727,-0.645c0.526,-0.431 0.789,-1.292 0.789,-2.584l-0,-8.755c-0,-2.344 -0.347,-3.839 -1.041,-4.485c-0.693,-0.646 -2.021,-0.992 -3.982,-1.04l-0,-1.651l20.452,0l-0,1.651c-1.388,0.048 -2.392,0.394 -3.014,1.04c-0.622,0.646 -0.933,2.141 -0.933,4.485l-0,33.369c-0,2.344 0.359,3.827 1.076,4.449c0.718,0.622 2.033,0.981 3.947,1.077l-0,1.65l-20.452,0l0,-1.65c1.387,-0.096 2.392,-0.455 3.014,-1.077c0.622,-0.622 0.933,-2.105 0.933,-4.449l-0,-19.088c-0.383,0.335 -0.861,0.55 -1.435,0.646c-0.574,0.095 -1.22,0.143 -1.938,0.143l-9.866,0c-1.292,0 -2.201,0.215 -2.727,0.646c-0.526,0.431 -0.789,1.268 -0.789,2.512l-0,15.141c-0,2.344 0.359,3.827 1.076,4.449c0.718,0.622 2.033,0.981 3.947,1.077l0,1.65l-20.452,0Z" style="fill:#fc8500;fill-rule:nonzero;"/><path d="M60.597,58.151c-2.631,-0 -4.581,-0.79 -5.848,-2.368c-1.268,-1.579 -1.902,-3.397 -1.902,-5.454c0,-3.158 1.447,-5.717 4.342,-7.679c2.894,-1.961 7.379,-3.755 13.455,-5.382l-0,-3.803c-0,-2.249 -0.467,-3.863 -1.4,-4.844c-0.932,-0.981 -2.236,-1.471 -3.911,-1.471c-2.296,-0 -4.198,0.861 -5.705,2.583c-1.507,1.723 -2.547,4.043 -3.121,6.961l-1.651,0l0,-10.333c1.627,-0.814 3.744,-1.579 6.351,-2.297c2.608,-0.717 5.442,-1.076 8.504,-1.076c8.276,-0 12.415,3.205 12.415,9.616l-0,15.644c-0,1.1 0.143,1.949 0.43,2.547c0.287,0.598 0.861,0.897 1.722,0.897c0.479,0 1.017,-0.107 1.615,-0.323c0.598,-0.215 1.232,-0.634 1.902,-1.255l1.148,1.148c-1.053,2.2 -2.44,3.839 -4.162,4.915c-1.723,1.077 -3.684,1.615 -5.885,1.615c-2.344,-0 -4.15,-0.466 -5.418,-1.399c-1.267,-0.933 -2.164,-2.285 -2.691,-4.055l-0.143,0c-1.101,1.914 -2.56,3.361 -4.378,4.342c-1.818,0.98 -3.707,1.471 -5.669,1.471Zm5.598,-6.459c0.956,0 1.806,-0.227 2.547,-0.681c0.742,-0.455 1.376,-0.969 1.902,-1.543l-0,-9.329c-2.201,0.622 -3.863,1.435 -4.988,2.44c-1.124,1.004 -1.865,2.009 -2.224,3.014c-0.359,1.004 -0.538,1.841 -0.538,2.511c-0,1.005 0.287,1.854 0.861,2.548c0.574,0.693 1.387,1.04 2.44,1.04Z" style="fill:#ffb705;fill-rule:nonzero;"/><path d="M116.786,0.383c0.192,1.053 0.323,2.296 0.395,3.732c0.072,1.435 0.072,2.858 -0,4.269c-0.072,1.412 -0.203,2.668 -0.395,3.768l-1.65,-0c-0.479,-2.966 -1.148,-4.988 -2.01,-6.064c-0.861,-1.076 -1.913,-1.615 -3.157,-1.615c-1.77,0 -3.17,1.029 -4.198,3.086c-1.029,2.057 -1.543,5.574 -1.543,10.549l-0,5.956l9.329,0l-0,3.804l-6.459,-0c-1.913,-0 -2.87,0.956 -2.87,2.87l-0,18.443c-0,1.77 0.132,3.097 0.395,3.982c0.263,0.885 0.813,1.471 1.65,1.759c0.837,0.287 2.069,0.454 3.696,0.502l-0,1.65l-19.734,0l-0,-1.65c0.813,-0.048 1.459,-0.215 1.937,-0.502c0.479,-0.288 0.813,-0.874 1.005,-1.759c0.191,-0.885 0.287,-2.212 0.287,-3.982l-0,-21.313l-4.306,-0l0,-3.804l4.306,0l-0,-3.444c-0,-4.689 1.028,-8.612 3.086,-11.769c2.057,-3.158 4.843,-5.466 8.36,-6.925c3.516,-1.459 7.475,-1.974 11.876,-1.543Z" style="fill:#023047;fill-rule:nonzero;"/><path d="M140.898,49.755l1.148,1.148c-0.526,1.196 -1.244,2.344 -2.153,3.444c-0.909,1.101 -2.069,2.01 -3.48,2.727c-1.411,0.718 -3.146,1.077 -5.203,1.077c-3.397,-0 -5.98,-1.005 -7.75,-3.014c-1.77,-2.01 -2.655,-4.593 -2.655,-7.75l-0,-19.519l-4.306,-0l0,-3.804l4.306,0l-0,-9.688l11.123,-1.076c-0.144,1.818 -0.239,3.612 -0.287,5.382c-0.048,1.77 -0.072,3.564 -0.072,5.382l9.329,0l-0,3.804l-6.459,-0c-1.913,-0 -2.87,0.956 -2.87,2.87l-0,15.213c-0,3.828 1.555,5.741 4.664,5.741c1.818,0 3.373,-0.646 4.665,-1.937Z" style="fill:#229ebc;fill-rule:nonzero;"/><g><path d="M19.301,81.481c0,2.74 -0.629,4.942 -1.889,6.605c-1.26,1.663 -2.95,2.494 -5.072,2.494c-2.265,0 -4.016,-0.801 -5.254,-2.403l-0.149,2.072l-2.818,-0l0,-25.459l3.067,0l-0,9.498c1.237,-1.536 2.944,-2.304 5.121,-2.304c2.177,-0 3.887,0.823 5.13,2.469c1.243,1.647 1.864,3.901 1.864,6.763l0,0.265Zm-3.066,-0.348c0,-2.089 -0.403,-3.702 -1.21,-4.84c-0.806,-1.138 -1.967,-1.707 -3.48,-1.707c-2.022,-0 -3.475,0.939 -4.359,2.817l-0,7.757c0.939,1.879 2.403,2.818 4.392,2.818c1.469,-0 2.613,-0.569 3.431,-1.707c0.817,-1.138 1.226,-2.851 1.226,-5.138Z" style="fill:#023047;fill-rule:nonzero;"/><path d="M25.442,90.249l-3.066,-0l0,-17.934l3.066,0l0,17.934Zm-3.314,-22.691c-0,-0.497 0.151,-0.917 0.455,-1.259c0.304,-0.343 0.754,-0.514 1.351,-0.514c0.597,-0 1.05,0.171 1.359,0.514c0.31,0.342 0.464,0.762 0.464,1.259c0,0.498 -0.154,0.912 -0.464,1.243c-0.309,0.332 -0.762,0.498 -1.359,0.498c-0.597,-0 -1.047,-0.166 -1.351,-0.498c-0.304,-0.331 -0.455,-0.745 -0.455,-1.243Z" style="fill:#023047;fill-rule:nonzero;"/><path d="M36.738,90.58c-2.431,0 -4.409,-0.798 -5.934,-2.395c-1.524,-1.597 -2.287,-3.732 -2.287,-6.406l0,-0.563c0,-1.779 0.34,-3.368 1.019,-4.766c0.68,-1.397 1.63,-2.491 2.851,-3.281c1.221,-0.79 2.544,-1.185 3.97,-1.185c2.331,-0 4.143,0.768 5.436,2.304c1.293,1.535 1.939,3.734 1.939,6.596l0,1.276l-12.149,0c0.045,1.768 0.561,3.196 1.55,4.285c0.989,1.088 2.246,1.632 3.771,1.632c1.083,0 2,-0.221 2.751,-0.663c0.751,-0.442 1.409,-1.027 1.972,-1.757l1.873,1.459c-1.502,2.309 -3.757,3.464 -6.762,3.464Zm-0.381,-16.077c-1.238,-0 -2.276,0.45 -3.116,1.351c-0.84,0.9 -1.359,2.163 -1.558,3.787l8.983,0l0,-0.232c-0.088,-1.558 -0.508,-2.765 -1.26,-3.622c-0.751,-0.856 -1.767,-1.284 -3.049,-1.284Z" style="fill:#023047;fill-rule:nonzero;"/><rect x="46.492" y="64.79" width="3.066" height="25.458" style="fill:#023047;fill-rule:nonzero;"/><path d="M63.854,85.492c-0,-0.829 -0.312,-1.473 -0.937,-1.931c-0.624,-0.459 -1.712,-0.854 -3.265,-1.185c-1.552,-0.332 -2.784,-0.73 -3.696,-1.194c-0.911,-0.464 -1.585,-1.016 -2.022,-1.657c-0.436,-0.641 -0.654,-1.403 -0.654,-2.287c-0,-1.47 0.621,-2.713 1.864,-3.729c1.243,-1.017 2.832,-1.525 4.765,-1.525c2.033,-0 3.682,0.525 4.948,1.574c1.265,1.05 1.897,2.392 1.897,4.028l-3.082,-0c-0,-0.84 -0.357,-1.564 -1.069,-2.171c-0.713,-0.608 -1.611,-0.912 -2.694,-0.912c-1.116,-0 -1.989,0.243 -2.619,0.729c-0.629,0.486 -0.944,1.122 -0.944,1.906c-0,0.741 0.293,1.299 0.878,1.674c0.586,0.376 1.644,0.735 3.174,1.078c1.531,0.342 2.771,0.751 3.721,1.226c0.95,0.475 1.655,1.047 2.113,1.716c0.459,0.668 0.688,1.483 0.688,2.444c0,1.602 -0.641,2.887 -1.922,3.854c-1.282,0.967 -2.945,1.45 -4.989,1.45c-1.437,0 -2.707,-0.254 -3.812,-0.762c-1.105,-0.509 -1.97,-1.219 -2.594,-2.13c-0.625,-0.912 -0.937,-1.898 -0.937,-2.959l3.067,0c0.055,1.028 0.466,1.843 1.234,2.445c0.768,0.602 1.782,0.903 3.042,0.903c1.16,0 2.091,-0.234 2.792,-0.704c0.702,-0.47 1.053,-1.097 1.053,-1.881Z" style="fill:#023047;fill-rule:nonzero;"/><path d="M74.868,81.945l-1.923,2.005l0,6.299l-3.066,-0l-0,-25.459l3.066,0l0,15.398l1.641,-1.972l5.586,-5.901l3.729,0l-6.978,7.492l7.79,10.442l-3.597,-0l-6.248,-8.304Z" style="fill:#023047;fill-rule:nonzero;"/><path d="M85.202,81.116c-0,-1.757 0.345,-3.337 1.036,-4.74c0.69,-1.403 1.652,-2.486 2.884,-3.249c1.232,-0.762 2.638,-1.143 4.218,-1.143c2.442,-0 4.417,0.845 5.925,2.536c1.509,1.69 2.263,3.939 2.263,6.745l-0,0.216c-0,1.746 -0.335,3.312 -1.003,4.699c-0.669,1.386 -1.624,2.466 -2.867,3.24c-1.243,0.773 -2.672,1.16 -4.285,1.16c-2.431,0 -4.4,-0.845 -5.909,-2.536c-1.508,-1.69 -2.262,-3.928 -2.262,-6.712l-0,-0.216Zm3.083,0.365c-0,1.989 0.461,3.585 1.384,4.79c0.922,1.204 2.157,1.806 3.704,1.806c1.558,0 2.796,-0.61 3.713,-1.831c0.917,-1.221 1.375,-2.931 1.375,-5.13c0,-1.967 -0.466,-3.561 -1.4,-4.782c-0.934,-1.221 -2.174,-1.831 -3.721,-1.831c-1.514,-0 -2.735,0.602 -3.663,1.807c-0.928,1.204 -1.392,2.928 -1.392,5.171Z" style="fill:#023047;fill-rule:nonzero;"/><path d="M107.374,88.641c0,-0.531 0.157,-0.973 0.472,-1.326c0.315,-0.354 0.788,-0.53 1.417,-0.53c0.63,-0 1.108,0.176 1.434,0.53c0.326,0.353 0.489,0.795 0.489,1.326c0,0.508 -0.163,0.934 -0.489,1.276c-0.326,0.343 -0.804,0.514 -1.434,0.514c-0.629,-0 -1.102,-0.171 -1.417,-0.514c-0.315,-0.342 -0.472,-0.768 -0.472,-1.276Z" style="fill:#023047;fill-rule:nonzero;"/><path d="M133.325,81.481c-0,2.729 -0.624,4.928 -1.873,6.596c-1.249,1.669 -2.939,2.503 -5.072,2.503c-2.176,0 -3.889,-0.691 -5.138,-2.072l0,8.635l-3.066,0l0,-24.828l2.801,0l0.149,1.989c1.249,-1.547 2.984,-2.32 5.205,-2.32c2.154,-0 3.859,0.812 5.113,2.436c1.254,1.624 1.881,3.884 1.881,6.779l-0,0.282Zm-3.066,-0.348c-0,-2.022 -0.431,-3.619 -1.293,-4.79c-0.862,-1.172 -2.044,-1.757 -3.547,-1.757c-1.856,-0 -3.249,0.823 -4.177,2.469l0,8.569c0.917,1.636 2.321,2.453 4.21,2.453c1.47,0 2.638,-0.583 3.506,-1.748c0.867,-1.166 1.301,-2.898 1.301,-5.196Z" style="fill:#023047;fill-rule:nonzero;"/><rect x="136.433" y="64.79" width="3.066" height="25.458" style="fill:#023047;fill-rule:nonzero;"/></g></g></svg>