<?xml version="1.0" encoding="UTF-8" standalone="no"?><!DOCTYPE svg PUBLIC "-//W3C//DTD SVG 1.1//EN" "http://www.w3.org/Graphics/SVG/1.1/DTD/svg11.dtd"><svg width="100%" height="100%" viewBox="0 0 128 128" version="1.1" xmlns="http://www.w3.org/2000/svg" xmlns:xlink="http://www.w3.org/1999/xlink" xml:space="preserve" xmlns:serif="http://www.serif.com/" style="fill-rule:evenodd;clip-rule:evenodd;stroke-linejoin:round;stroke-miterlimit:2;"><path d="M50.4,78.5c-9.861,0.405 -19.546,2.75 -28.5,6.9l24.2,-65.7c0.7,-2 1.9,-3.2 3.4,-3.2l29,0c1.5,0 2.7,1.2 3.4,3.2l24.2,65.7c0,0 -11.6,-7 -28.5,-7l-10.6,-32.9c-0.4,-1.7 -1.6,-2.8 -2.9,-2.8c-1.3,-0 -2.5,1.1 -2.9,2.7l-10.8,33.1Zm-5.3,8c-2,6.6 -0.6,15.8 4.2,20.2c0.062,-0.235 0.128,-0.468 0.2,-0.7c0.497,-2.707 2.952,-4.645 5.7,-4.5c2.8,0.1 4.3,1.5 4.7,4.7c0.2,1.1 0.2,2.3 0.2,3.5l-0,0.4c-0,2.7 0.7,5.2 2.2,7.4c1.376,2.159 3.359,3.864 5.7,4.9l-0,-0.3l-0.2,-0.3c-1.8,-5.6 -0.5,-9.5 4.4,-12.8l1.5,-1c1.086,-0.705 2.153,-1.438 3.2,-2.2c3.808,-2.635 6.291,-6.797 6.8,-11.4c0.3,-2 0.1,-4 -0.6,-6l-0.8,0.6l-1.6,1c-7.002,3.21 -14.835,4.154 -22.4,2.7c-5,-0.7 -9.7,-2 -13.2,-6.2Z" style="fill-rule:nonzero;"/><rect x="-51.096" y="-21.431" width="260.088" height="208.143" style="fill:#092f46;"/><g><g><clipPath id="_clip1"><path d="M23.307,106.685l0,-2.912c2.448,-0.168 4.22,-0.801 5.317,-1.899c1.097,-1.097 1.646,-3.713 1.646,-7.848l0,-58.867c0,-4.135 -0.612,-6.773 -1.836,-7.912c-1.223,-1.14 -3.565,-1.751 -7.026,-1.836l0,-2.912l36.08,0l-0,2.912c-2.448,0.085 -4.22,0.696 -5.317,1.836c-1.097,1.139 -1.646,3.777 -1.646,7.912l0,22.407c0.675,-0.506 1.498,-0.844 2.469,-1.013c0.97,-0.168 2.131,-0.253 3.481,-0.253l17.405,0c2.279,0 3.882,-0.379 4.81,-1.139c0.929,-0.76 1.393,-2.279 1.393,-4.557l0,-15.445c0,-4.135 -0.612,-6.773 -1.836,-7.912c-1.223,-1.14 -3.565,-1.751 -7.026,-1.836l0,-2.912l36.08,0l-0,2.912c-2.448,0.085 -4.22,0.696 -5.317,1.836c-1.097,1.139 -1.646,3.777 -1.646,7.912l0,58.867c0,4.135 0.633,6.751 1.899,7.848c1.266,1.098 3.587,1.731 6.963,1.899l-0,2.912l-36.08,0l0,-2.912c2.448,-0.168 4.22,-0.801 5.317,-1.899c1.097,-1.097 1.646,-3.713 1.646,-7.848l0,-33.675c-0.675,0.591 -1.519,0.971 -2.532,1.14c-1.013,0.168 -2.152,0.253 -3.418,0.253l-17.405,-0c-2.278,-0 -3.882,0.38 -4.81,1.139c-0.929,0.76 -1.393,2.237 -1.393,4.431l0,26.712c0,4.135 0.633,6.751 1.899,7.848c1.266,1.098 3.587,1.731 6.963,1.899l-0,2.912l-36.08,0Z" clip-rule="nonzero"/></clipPath><g clip-path="url(#_clip1)"><g><g><rect x="-29.979" y="1.149" width="114.027" height="76.018" style="fill:#fff;fill-rule:nonzero;"/><rect x="-10.896" y="1.23" width="18.968" height="9.439" style="fill:#91cae6;fill-rule:nonzero;"/><rect x="65.075" y="39.188" width="9.463" height="19.062" style="fill:#91cae6;fill-rule:nonzero;"/><rect x="46.122" y="58.192" width="18.953" height="9.502" style="fill:#fdb614;fill-rule:nonzero;"/><rect x="46.097" y="20.197" width="18.978" height="18.978" style="fill:#91cae6;fill-rule:nonzero;"/><rect x="-30.01" y="39.231" width="38.059" height="19.057" style="fill:#092f46;fill-rule:nonzero;"/><rect x="27.061" y="20.179" width="19.031" height="19.009" style="fill:#f6851f;fill-rule:nonzero;"/><rect x="-10.943" y="20.184" width="18.993" height="19.047" style="fill:#fdb614;fill-rule:nonzero;"/><rect x="17.693" y="20.184" width="9.41" height="9.485" style="fill:#91cae6;fill-rule:nonzero;"/><rect x="27.061" y="10.682" width="9.477" height="9.477" style="fill:#91cae6;fill-rule:nonzero;"/><rect x="27.131" y="39.176" width="19.016" height="19.106" style="fill:#259ebc;fill-rule:nonzero;"/><path d="M55.671,39.161l0,19.047c-5.26,-0 -9.523,-4.265 -9.523,-9.524c-0,-5.26 4.263,-9.523 9.523,-9.523Z" style="fill:#259ebc;fill-rule:nonzero;"/><path d="M27.045,1.207l19.047,-0c-0,5.26 -4.265,9.523 -9.524,9.523c-5.26,0 -9.523,-4.263 -9.523,-9.523Z" style="fill:#fdb614;fill-rule:nonzero;"/><path d="M31.376,1.207l10.385,-0c-0,2.868 -2.326,5.192 -5.193,5.192c-2.868,0 -5.192,-2.324 -5.192,-5.192Z" style="fill:#f6851f;fill-rule:nonzero;"/><path d="M27.044,48.727l0,-9.523l9.576,-0c-0.028,5.264 -4.304,9.523 -9.576,9.523Z" style="fill:#fdb614;fill-rule:nonzero;"/><path d="M27.047,43.938l-0,-4.734l4.785,-0c-0.027,2.62 -2.158,4.734 -4.785,4.734Z" style="fill:#91cae6;fill-rule:nonzero;"/><path d="M17.437,58.146l0.171,-0l-0.085,0.085l-0.086,-0.085Z" style="fill:#092f46;fill-rule:nonzero;"/><path d="M46.092,39.076l-0,-18.879l18.983,0c-0.057,10.436 -8.534,18.879 -18.983,18.879Z" style="fill:#91cae6;fill-rule:nonzero;"/><path d="M46.097,29.582l0,-9.385l9.486,0c-0.053,5.194 -4.278,9.385 -9.486,9.385Z" style="fill:#fdb614;fill-rule:nonzero;"/><path d="M27.131,48.754l-19.048,0l9.525,-9.523l9.523,9.523Z" style="fill:#092f46;fill-rule:nonzero;"/><path d="M21.788,48.754l-8.362,0l4.181,-4.18l4.181,4.18Z" style="fill:#259ebc;fill-rule:nonzero;"/><path d="M-1.441,39.231l9.524,-9.524l9.524,9.524l-9.524,9.524l-9.524,-9.524Z" style="fill:#91cae6;fill-rule:nonzero;"/><path d="M8.083,48.754l-0.033,-9.523l9.558,-0l-9.525,9.523Z" style="fill:#f6851f;fill-rule:nonzero;"/><path d="M8.084,29.707l-0.034,9.524l-9.491,-0l9.525,-9.524Z" style="fill:#f6851f;fill-rule:nonzero;"/><rect x="17.68" y="1.23" width="9.336" height="9.477" style="fill:#91cae6;fill-rule:nonzero;"/><path d="M17.68,1.23l9.336,9.477l-0.009,-9.451l-9.327,-0.026Z" style="fill:#259ebc;fill-rule:nonzero;"/><path d="M8.083,29.686l-9.524,9.523l-9.523,-9.523l0.026,-0.026l18.987,0l0,-0.008l0.034,0.034Z" style="fill:#092f46;fill-rule:nonzero;"/><path d="M8.049,29.652l0,0.008l-18.987,0l9.497,-9.497l9.49,9.489Z" style="fill:#fff;fill-rule:nonzero;"/><path d="M-5.622,29.686l4.181,-4.181l4.181,4.181l-4.181,4.181l-4.181,-4.181Z" style="fill:#259ebc;fill-rule:nonzero;"/><path d="M17.608,67.806c5.259,-0 9.523,-4.265 9.523,-9.524l-19.047,0c0,5.259 4.263,9.524 9.524,9.524Z" style="fill:#fdb614;fill-rule:nonzero;"/><rect x="8.084" y="48.755" width="19.047" height="9.528" style="fill:#91cae6;fill-rule:nonzero;"/><path d="M17.586,63.578c-2.938,-0 -5.321,-2.382 -5.321,-5.321c0,-2.939 2.383,-5.321 5.321,-5.321c2.939,-0 5.322,2.382 5.322,5.321c-0,2.939 -2.383,5.321 -5.322,5.321Z" style="fill:#f6851f;fill-rule:nonzero;"/><path d="M46.148,58.282c-5.251,0 -9.508,-4.257 -9.508,-9.508l-0,-9.57l9.508,-0l-0,19.078Z" style="fill:#fdb614;fill-rule:nonzero;"/><rect x="-30.01" y="58.288" width="38.059" height="9.266" style="fill:#f6851f;fill-rule:nonzero;"/><path d="M8.033,58.273l0,0.015l-37.995,-0l19.005,-19.006l18.99,18.991Z" style="fill:#fff;fill-rule:nonzero;"/><path d="M63.404,43.993c-0,1.661 -1.347,3.008 -3.009,3.008c-1.661,-0 -3.008,-1.347 -3.008,-3.008c-0,-1.662 1.347,-3.009 3.008,-3.009c1.662,0 3.009,1.347 3.009,3.009Z" style="fill:#092f46;fill-rule:nonzero;"/><path d="M46.164,67.674l-19.048,-0l9.525,9.523l9.523,-9.523Z" style="fill:#91cae6;fill-rule:nonzero;"/><path d="M31.448,67.674l10.384,-0c0,2.867 -2.325,5.192 -5.192,5.192c-2.868,-0 -5.192,-2.325 -5.192,-5.192Z" style="fill:#259ebc;fill-rule:nonzero;"/><rect x="27.126" y="58.27" width="19.027" height="9.404" style="fill:#f6851f;fill-rule:nonzero;"/><path d="M34.852,63.044c0,1.661 -1.347,3.008 -3.008,3.008c-1.662,0 -3.009,-1.347 -3.009,-3.008c0,-1.661 1.347,-3.008 3.009,-3.008c1.661,-0 3.008,1.347 3.008,3.008Z" style="fill:#fff;fill-rule:nonzero;"/><path d="M44.365,63.044c0,1.661 -1.347,3.008 -3.008,3.008c-1.662,0 -3.008,-1.347 -3.008,-3.008c-0,-1.661 1.346,-3.008 3.008,-3.008c1.661,-0 3.008,1.347 3.008,3.008Z" style="fill:#fff;fill-rule:nonzero;"/><rect x="8.05" y="1.18" width="9.643" height="28.481" style="fill:#f6851f;fill-rule:nonzero;"/><path d="M15.867,5.969c0,1.661 -1.347,3.008 -3.008,3.008c-1.661,-0 -3.008,-1.347 -3.008,-3.008c-0,-1.662 1.347,-3.009 3.008,-3.009c1.661,0 3.008,1.347 3.008,3.009Z" style="fill:#fdb614;fill-rule:nonzero;"/><path d="M15.867,15.42c0,1.662 -1.347,3.008 -3.008,3.008c-1.661,0 -3.008,-1.346 -3.008,-3.008c-0,-1.661 1.347,-3.008 3.008,-3.008c1.661,-0 3.008,1.347 3.008,3.008Z" style="fill:#fdb614;fill-rule:nonzero;"/><path d="M15.867,24.872c0,1.661 -1.347,3.008 -3.008,3.008c-1.661,-0 -3.008,-1.347 -3.008,-3.008c-0,-1.662 1.347,-3.009 3.008,-3.009c1.661,0 3.008,1.347 3.008,3.009Z" style="fill:#fdb614;fill-rule:nonzero;"/><path d="M65.021,20.197l9.524,-9.524l9.524,9.524l-9.524,9.524l-9.524,-9.524Z" style="fill:#092f46;fill-rule:nonzero;"/><path d="M74.545,29.721l0.032,-9.524l9.493,0l-9.525,9.524Z" style="fill:#f6851f;fill-rule:nonzero;"/><path d="M74.547,10.674l0.03,9.523l-9.556,0l9.526,-9.523Z" style="fill:#f6851f;fill-rule:nonzero;"/><rect x="-1.529" y="67.53" width="9.575" height="9.667" style="fill:#f6851f;fill-rule:nonzero;"/><path d="M-1.488,67.53l9.538,9.667l-0.01,-9.641l-9.528,-0.026Z" style="fill:#fdb614;fill-rule:nonzero;"/><path d="M27.044,29.656l9.524,-9.524l9.524,9.524l-9.524,9.524l-9.524,-9.524Z" style="fill:#fff;fill-rule:nonzero;"/><path d="M27.12,20.18c0,0 0.224,4.555 -2.372,7.125c-2.597,2.571 -7.036,2.343 -7.036,2.343c-0,0 -0.23,-4.394 2.367,-6.964c2.596,-2.57 7.041,-2.504 7.041,-2.504Z" style="fill:#fdb614;fill-rule:nonzero;"/><path d="M17.711,10.707c0,0 -0.223,4.555 2.373,7.125c2.597,2.57 7.036,2.343 7.036,2.343c0,0 0.23,-4.394 -2.367,-6.964c-2.596,-2.57 -7.042,-2.504 -7.042,-2.504Z" style="fill:#f6851f;fill-rule:nonzero;"/><path d="M27.13,20.18c0,0 -0.224,4.555 2.373,7.125c2.596,2.57 7.036,2.343 7.036,2.343c-0,0 0.229,-4.394 -2.367,-6.964c-2.597,-2.57 -7.042,-2.504 -7.042,-2.504Z" style="fill:#fdb614;fill-rule:nonzero;"/><path d="M36.539,10.707c0,0 0.224,4.555 -2.373,7.125c-2.596,2.57 -7.035,2.343 -7.035,2.343c-0,0 -0.23,-4.394 2.366,-6.964c2.597,-2.57 7.042,-2.504 7.042,-2.504Z" style="fill:#f6851f;fill-rule:nonzero;"/><path d="M46.092,29.656l-9.529,-0.052l0.005,9.576l9.524,-9.524Z" style="fill:#259ebc;fill-rule:nonzero;"/><path d="M8.025,29.669l19.078,19.077l-0,-19.077l-19.078,-0Z" style="fill:#fff;fill-rule:nonzero;"/><path d="M25.406,34.469c0,1.661 -1.347,3.008 -3.008,3.008c-1.662,0 -3.008,-1.347 -3.008,-3.008c-0,-1.662 1.346,-3.008 3.008,-3.008c1.661,-0 3.008,1.346 3.008,3.008Z" style="fill:#259ebc;fill-rule:nonzero;"/><path d="M55.568,67.724c-0,-0 0.223,4.555 -2.373,7.125c-2.597,2.57 -7.036,2.343 -7.036,2.343c0,-0 -0.229,-4.394 2.367,-6.965c2.597,-2.57 7.042,-2.503 7.042,-2.503Z" style="fill:#91cae6;fill-rule:nonzero;"/><path d="M46.159,58.251c-0,-0 -0.224,4.554 2.372,7.125c2.597,2.57 7.036,2.343 7.036,2.343c0,-0 0.23,-4.395 -2.367,-6.965c-2.596,-2.57 -7.041,-2.503 -7.041,-2.503Z" style="fill:#259ebc;fill-rule:nonzero;"/><path d="M55.577,67.724c0,-0 -0.223,4.555 2.373,7.125c2.597,2.57 7.036,2.343 7.036,2.343c0,-0 0.23,-4.394 -2.367,-6.965c-2.597,-2.57 -7.042,-2.503 -7.042,-2.503Z" style="fill:#91cae6;fill-rule:nonzero;"/><path d="M64.986,58.251c0,-0 0.224,4.554 -2.372,7.124c-2.597,2.571 -7.036,2.344 -7.036,2.344c-0,-0 -0.23,-4.395 2.367,-6.965c2.596,-2.57 7.041,-2.503 7.041,-2.503Z" style="fill:#259ebc;fill-rule:nonzero;"/><rect x="55.671" y="48.792" width="9.416" height="9.416" style="fill:#91cae6;fill-rule:nonzero;"/><path d="M55.671,48.792l9.417,-0l-0,9.416l-9.417,-9.416Z" style="fill:#91cae6;fill-rule:nonzero;"/><rect x="74.546" y="67.726" width="9.471" height="9.471" style="fill:#fdb614;fill-rule:nonzero;"/><path d="M74.546,67.726l9.471,-0l-0,9.471l-9.471,-9.471Z" style="fill:#f6851f;fill-rule:nonzero;"/><rect x="65.075" y="67.726" width="9.471" height="9.471" style="fill:#259ebc;fill-rule:nonzero;"/><path d="M65.075,77.197l-0,-9.471l9.471,-0l-9.471,9.471Z" style="fill:#092f46;fill-rule:nonzero;"/><rect x="74.546" y="39.259" width="9.471" height="28.481" style="fill:#91cae6;fill-rule:nonzero;"/><path d="M82.289,44.048c0,1.662 -1.346,3.009 -3.008,3.009c-1.661,-0 -3.008,-1.347 -3.008,-3.009c-0,-1.661 1.347,-3.008 3.008,-3.008c1.662,-0 3.008,1.347 3.008,3.008Z" style="fill:#259ebc;fill-rule:nonzero;"/><path d="M82.289,53.5c0,1.661 -1.346,3.008 -3.008,3.008c-1.661,0 -3.008,-1.347 -3.008,-3.008c-0,-1.662 1.347,-3.008 3.008,-3.008c1.662,-0 3.008,1.346 3.008,3.008Z" style="fill:#259ebc;fill-rule:nonzero;"/><path d="M82.289,62.951c0,1.662 -1.346,3.009 -3.008,3.009c-1.661,-0 -3.008,-1.347 -3.008,-3.009c-0,-1.661 1.347,-3.008 3.008,-3.008c1.662,-0 3.008,1.347 3.008,3.008Z" style="fill:#259ebc;fill-rule:nonzero;"/><path d="M74.538,48.653l-0,-0c-5.251,-0 -9.508,4.257 -9.508,9.508l-0,9.571l9.508,-0l-0,-19.079Z" style="fill:#f6851f;fill-rule:nonzero;"/><path d="M65.021,20.197l9.524,9.524l0.001,9.538l-9.471,-0.084l-0.054,-18.978Z" style="fill:#fdb614;fill-rule:nonzero;"/><path d="M74.543,39.312c-0,-0 0.223,4.555 -2.373,7.125c-2.597,2.57 -7.036,2.343 -7.036,2.343c0,-0 -0.229,-4.394 2.367,-6.965c2.596,-2.57 7.042,-2.503 7.042,-2.503Z" style="fill:#f6851f;fill-rule:nonzero;"/><path d="M84.012,29.8c-0,0 0.224,4.555 -2.373,7.125c-2.597,2.571 -7.036,2.343 -7.036,2.343c0,0 -0.229,-4.394 2.367,-6.964c2.597,-2.57 7.042,-2.504 7.042,-2.504Z" style="fill:#f6851f;fill-rule:nonzero;"/><path d="M8.106,10.703l-9.524,9.523l-9.523,-9.523l0.026,-0.026l18.987,0l0,-0.008l0.034,0.034Z" style="fill:#259ebc;fill-rule:nonzero;"/><path d="M8.072,10.669l0,0.008l-18.987,0l9.497,-9.498l9.49,9.49Z" style="fill:#092f46;fill-rule:nonzero;"/><path d="M-5.598,10.703l4.181,-4.181l4.181,4.181l-4.181,4.181l-4.181,-4.181Z" style="fill:#fdb614;fill-rule:nonzero;"/><path d="M65.17,20.197l-19.078,-19.078l-0,19.078l19.078,0Z" style="fill:#092f46;fill-rule:nonzero;"/><path d="M47.789,15.397c-0,-1.662 1.346,-3.008 3.008,-3.008c1.661,-0 3.008,1.346 3.008,3.008c0,1.661 -1.347,3.008 -3.008,3.008c-1.662,-0 -3.008,-1.347 -3.008,-3.008Z" style="fill:#259ebc;fill-rule:nonzero;"/><path d="M74.798,1.179l-19.553,0l9.778,9.776l9.775,-9.776Z" style="fill:#f6851f;fill-rule:nonzero;"/><path d="M65.023,10.955l0.052,9.242l19.004,-19.017l-9.281,-0.001l-9.775,9.776Z" style="fill:#91cae6;fill-rule:nonzero;"/><path d="M84.079,1.18l-9.534,9.493l9.525,9.524l0.009,-19.017Z" style="fill:#259ebc;fill-rule:nonzero;"/><path d="M15.774,72.46c0,1.662 -1.347,3.009 -3.008,3.009c-1.661,-0 -3.008,-1.347 -3.008,-3.009c-0,-1.661 1.347,-3.008 3.008,-3.008c1.661,0 3.008,1.347 3.008,3.008Z" style="fill:#91cae6;fill-rule:nonzero;"/><path d="M25.287,72.46c0,1.662 -1.346,3.009 -3.008,3.009c-1.661,-0 -3.008,-1.347 -3.008,-3.009c-0,-1.661 1.347,-3.008 3.008,-3.008c1.662,0 3.008,1.347 3.008,3.008Z" style="fill:#91cae6;fill-rule:nonzero;"/><path d="M27.116,67.674l0.015,9.523l9.51,-0l-9.525,-9.523Z" style="fill:#fdb614;fill-rule:nonzero;"/><path d="M46.092,15.978l-0,8.361l-4.18,-4.181l4.18,-4.18Z" style="fill:#259ebc;fill-rule:nonzero;"/><path d="M36.577,20.179l-0,-9.471l9.471,0l-9.471,9.471Z" style="fill:#092f46;fill-rule:nonzero;"/></g></g><g><g><g><rect x="-29.979" y="76.914" width="114.027" height="76.018" style="fill:#fff;fill-rule:nonzero;"/><rect x="-10.896" y="76.995" width="18.968" height="9.439" style="fill:#91cae6;fill-rule:nonzero;"/><rect x="65.075" y="114.953" width="9.463" height="19.062" style="fill:#91cae6;fill-rule:nonzero;"/><rect x="46.097" y="95.962" width="18.978" height="18.978" style="fill:#092f46;fill-rule:nonzero;"/><rect x="-30.01" y="114.995" width="38.059" height="19.057" style="fill:#092f46;fill-rule:nonzero;"/><rect x="27.061" y="95.943" width="19.031" height="19.009" style="fill:#f6851f;fill-rule:nonzero;"/><rect x="-10.943" y="95.948" width="18.993" height="19.047" style="fill:#fdb614;fill-rule:nonzero;"/><rect x="17.693" y="95.948" width="9.41" height="9.485" style="fill:#91cae6;fill-rule:nonzero;"/><rect x="27.061" y="86.446" width="9.477" height="9.477" style="fill:#91cae6;fill-rule:nonzero;"/><rect x="27.131" y="114.941" width="19.016" height="19.106" style="fill:#259ebc;fill-rule:nonzero;"/><path d="M55.671,114.925l0,19.047c-5.26,0 -9.523,-4.264 -9.523,-9.523c-0,-5.261 4.263,-9.524 9.523,-9.524Z" style="fill:#259ebc;fill-rule:nonzero;"/><path d="M27.045,76.971l19.047,0c-0,5.261 -4.265,9.524 -9.524,9.524c-5.26,-0 -9.523,-4.263 -9.523,-9.524Z" style="fill:#fdb614;fill-rule:nonzero;"/><path d="M31.376,76.971l10.385,0c-0,2.868 -2.326,5.193 -5.193,5.193c-2.868,-0 -5.192,-2.325 -5.192,-5.193Z" style="fill:#f6851f;fill-rule:nonzero;"/><path d="M27.044,124.492l0,-9.524l9.576,0c-0.028,5.265 -4.304,9.524 -9.576,9.524Z" style="fill:#fdb614;fill-rule:nonzero;"/><path d="M27.047,119.703l-0,-4.735l4.785,0c-0.027,2.621 -2.158,4.735 -4.785,4.735Z" style="fill:#91cae6;fill-rule:nonzero;"/><path d="M46.092,114.84l-0,-18.878l18.983,-0c-0.057,10.435 -8.534,18.878 -18.983,18.878Z" style="fill:#91cae6;fill-rule:nonzero;"/><path d="M46.097,105.347l0,-9.385l9.486,-0c-0.053,5.194 -4.278,9.385 -9.486,9.385Z" style="fill:#fdb614;fill-rule:nonzero;"/><path d="M27.131,124.519l-19.048,-0l9.525,-9.524l9.523,9.524Z" style="fill:#092f46;fill-rule:nonzero;"/><path d="M21.788,124.519l-8.362,-0l4.181,-4.181l4.181,4.181Z" style="fill:#259ebc;fill-rule:nonzero;"/><path d="M-1.441,114.995l9.524,-9.524l9.524,9.524l-9.524,9.524l-9.524,-9.524Z" style="fill:#91cae6;fill-rule:nonzero;"/><path d="M8.083,124.519l-0.033,-9.524l9.558,-0l-9.525,9.524Z" style="fill:#f6851f;fill-rule:nonzero;"/><path d="M8.084,105.472l-0.034,9.523l-9.491,-0l9.525,-9.523Z" style="fill:#f6851f;fill-rule:nonzero;"/><rect x="17.68" y="76.995" width="9.336" height="9.477" style="fill:#91cae6;fill-rule:nonzero;"/><path d="M17.68,76.995l9.336,9.476l-0.009,-9.451l-9.327,-0.025Z" style="fill:#259ebc;fill-rule:nonzero;"/><path d="M8.083,105.45l-9.524,9.524l-9.523,-9.524l0.026,-0.025l18.987,-0l0,-0.008l0.034,0.033Z" style="fill:#092f46;fill-rule:nonzero;"/><path d="M8.049,105.417l0,0.008l-18.987,-0l9.497,-9.498l9.49,9.49Z" style="fill:#fff;fill-rule:nonzero;"/><path d="M-5.622,105.45l4.181,-4.181l4.181,4.181l-4.181,4.181l-4.181,-4.181Z" style="fill:#259ebc;fill-rule:nonzero;"/><rect x="8.084" y="124.519" width="19.047" height="9.528" style="fill:#91cae6;fill-rule:nonzero;"/><path d="M17.586,139.342c-2.938,0 -5.321,-2.382 -5.321,-5.321c0,-2.939 2.383,-5.321 5.321,-5.321c2.939,-0 5.322,2.382 5.322,5.321c-0,2.939 -2.383,5.321 -5.322,5.321Z" style="fill:#f6851f;fill-rule:nonzero;"/><path d="M46.148,134.047c-5.251,-0 -9.508,-4.257 -9.508,-9.508l-0,-9.571l9.508,-0l-0,19.079Z" style="fill:#092f46;fill-rule:nonzero;"/><path d="M8.033,134.037l0,0.015l-37.995,0l19.005,-19.005l18.99,18.99Z" style="fill:#fff;fill-rule:nonzero;"/><path d="M63.404,119.757c-0,1.661 -1.347,3.008 -3.009,3.008c-1.661,0 -3.008,-1.347 -3.008,-3.008c-0,-1.662 1.347,-3.008 3.008,-3.008c1.662,-0 3.009,1.346 3.009,3.008Z" style="fill:#092f46;fill-rule:nonzero;"/><rect x="8.05" y="76.944" width="9.643" height="28.481" style="fill:#f6851f;fill-rule:nonzero;"/><path d="M15.867,81.733c0,1.661 -1.347,3.008 -3.008,3.008c-1.661,0 -3.008,-1.347 -3.008,-3.008c-0,-1.661 1.347,-3.008 3.008,-3.008c1.661,-0 3.008,1.347 3.008,3.008Z" style="fill:#fdb614;fill-rule:nonzero;"/><path d="M15.867,91.184c0,1.662 -1.347,3.009 -3.008,3.009c-1.661,-0 -3.008,-1.347 -3.008,-3.009c-0,-1.661 1.347,-3.008 3.008,-3.008c1.661,0 3.008,1.347 3.008,3.008Z" style="fill:#fdb614;fill-rule:nonzero;"/><path d="M15.867,100.636c0,1.661 -1.347,3.008 -3.008,3.008c-1.661,0 -3.008,-1.347 -3.008,-3.008c-0,-1.662 1.347,-3.008 3.008,-3.008c1.661,-0 3.008,1.346 3.008,3.008Z" style="fill:#fdb614;fill-rule:nonzero;"/><path d="M65.021,95.962l9.524,-9.524l9.524,9.524l-9.524,9.523l-9.524,-9.523Z" style="fill:#fdb614;fill-rule:nonzero;"/><path d="M74.545,105.485l0.032,-9.523l9.493,-0l-9.525,9.523Z" style="fill:#f6851f;fill-rule:nonzero;"/><path d="M74.547,86.438l0.03,9.524l-9.556,-0l9.526,-9.524Z" style="fill:#f6851f;fill-rule:nonzero;"/><path d="M27.044,105.42l9.524,-9.524l9.524,9.524l-9.524,9.524l-9.524,-9.524Z" style="fill:#91cae6;fill-rule:nonzero;"/><path d="M27.12,95.945c0,-0 0.224,4.555 -2.372,7.125c-2.597,2.57 -7.036,2.343 -7.036,2.343c-0,-0 -0.23,-4.395 2.367,-6.965c2.596,-2.57 7.041,-2.503 7.041,-2.503Z" style="fill:#fdb614;fill-rule:nonzero;"/><path d="M17.711,86.472c0,-0 -0.223,4.554 2.373,7.125c2.597,2.57 7.036,2.343 7.036,2.343c0,-0 0.23,-4.395 -2.367,-6.965c-2.596,-2.57 -7.042,-2.503 -7.042,-2.503Z" style="fill:#f6851f;fill-rule:nonzero;"/><path d="M27.13,95.945c0,-0 -0.224,4.555 2.373,7.125c2.596,2.57 7.036,2.343 7.036,2.343c-0,-0 0.229,-4.395 -2.367,-6.965c-2.597,-2.57 -7.042,-2.503 -7.042,-2.503Z" style="fill:#fdb614;fill-rule:nonzero;"/><path d="M36.539,86.472c0,-0 0.224,4.554 -2.373,7.125c-2.596,2.57 -7.035,2.343 -7.035,2.343c-0,-0 -0.23,-4.395 2.366,-6.965c2.597,-2.57 7.042,-2.503 7.042,-2.503Z" style="fill:#f6851f;fill-rule:nonzero;"/><path d="M46.092,105.42l-9.529,-0.052l0.005,9.576l9.524,-9.524Z" style="fill:#259ebc;fill-rule:nonzero;"/><path d="M8.025,105.433l19.078,19.078l-0,-19.078l-19.078,-0Z" style="fill:#fff;fill-rule:nonzero;"/><path d="M25.406,110.233c0,1.662 -1.347,3.009 -3.008,3.009c-1.662,-0 -3.008,-1.347 -3.008,-3.009c-0,-1.661 1.346,-3.008 3.008,-3.008c1.661,0 3.008,1.347 3.008,3.008Z" style="fill:#259ebc;fill-rule:nonzero;"/><rect x="55.671" y="124.556" width="9.416" height="9.416" style="fill:#91cae6;fill-rule:nonzero;"/><path d="M55.671,124.556l9.417,0l-0,9.416l-9.417,-9.416Z" style="fill:#092f46;fill-rule:nonzero;"/><rect x="74.546" y="115.024" width="9.471" height="28.481" style="fill:#092f46;fill-rule:nonzero;"/><path d="M82.289,119.813c0,1.661 -1.346,3.008 -3.008,3.008c-1.661,0 -3.008,-1.347 -3.008,-3.008c-0,-1.662 1.347,-3.009 3.008,-3.009c1.662,0 3.008,1.347 3.008,3.009Z" style="fill:#259ebc;fill-rule:nonzero;"/><path d="M82.289,129.264c0,1.662 -1.346,3.008 -3.008,3.008c-1.661,0 -3.008,-1.346 -3.008,-3.008c-0,-1.661 1.347,-3.008 3.008,-3.008c1.662,-0 3.008,1.347 3.008,3.008Z" style="fill:#259ebc;fill-rule:nonzero;"/><path d="M74.538,124.417l-0,0c-5.251,0 -9.508,4.257 -9.508,9.509l-0,9.57l9.508,0l-0,-19.079Z" style="fill:#f6851f;fill-rule:nonzero;"/><path d="M65.021,95.962l9.524,9.523l0.001,9.539l-9.471,-0.085l-0.054,-18.977Z" style="fill:#fdb614;fill-rule:nonzero;"/><path d="M74.543,115.076c-0,0 0.223,4.555 -2.373,7.125c-2.597,2.57 -7.036,2.343 -7.036,2.343c0,0 -0.229,-4.394 2.367,-6.964c2.596,-2.57 7.042,-2.504 7.042,-2.504Z" style="fill:#f6851f;fill-rule:nonzero;"/><path d="M84.012,105.565c-0,-0 0.224,4.555 -2.373,7.125c-2.597,2.57 -7.036,2.343 -7.036,2.343c0,-0 -0.229,-4.394 2.367,-6.965c2.597,-2.57 7.042,-2.503 7.042,-2.503Z" style="fill:#f6851f;fill-rule:nonzero;"/><path d="M8.106,86.467l-9.524,9.524l-9.523,-9.524l0.026,-0.026l18.987,0l0,-0.007l0.034,0.033Z" style="fill:#259ebc;fill-rule:nonzero;"/><path d="M8.072,86.434l0,0.007l-18.987,0l9.497,-9.497l9.49,9.49Z" style="fill:#092f46;fill-rule:nonzero;"/><path d="M-5.598,86.467l4.181,-4.181l4.181,4.181l-4.181,4.181l-4.181,-4.181Z" style="fill:#fdb614;fill-rule:nonzero;"/><path d="M65.17,95.962l-19.078,-19.078l-0,19.078l19.078,-0Z" style="fill:#91cae6;fill-rule:nonzero;"/><path d="M47.789,91.161c-0,-1.661 1.346,-3.008 3.008,-3.008c1.661,-0 3.008,1.347 3.008,3.008c0,1.662 -1.347,3.008 -3.008,3.008c-1.662,0 -3.008,-1.346 -3.008,-3.008Z" style="fill:#259ebc;fill-rule:nonzero;"/><path d="M74.798,76.944l-19.553,-0l9.778,9.775l9.775,-9.775Z" style="fill:#f6851f;fill-rule:nonzero;"/><path d="M65.023,86.719l0.052,9.243l19.004,-19.018l-9.281,-0l-9.775,9.775Z" style="fill:#91cae6;fill-rule:nonzero;"/><path d="M84.079,76.944l-9.534,9.494l9.525,9.524l0.009,-19.018Z" style="fill:#259ebc;fill-rule:nonzero;"/><path d="M46.092,91.742l-0,8.362l-4.18,-4.182l4.18,-4.18Z" style="fill:#259ebc;fill-rule:nonzero;"/><path d="M36.577,95.943l-0,-9.47l9.471,-0l-9.471,9.47Z" style="fill:#259ebc;fill-rule:nonzero;"/></g></g></g><g><g><g><rect x="84.115" y="1.149" width="114.027" height="76.018" style="fill:#fff;fill-rule:nonzero;"/><rect x="103.198" y="1.23" width="18.968" height="9.439" style="fill:#91cae6;fill-rule:nonzero;"/><rect x="84.084" y="39.231" width="38.059" height="19.057" style="fill:#fdb614;fill-rule:nonzero;"/><rect x="103.151" y="20.184" width="18.993" height="19.047" style="fill:#fdb614;fill-rule:nonzero;"/><path d="M141.225,48.754l-19.048,0l9.525,-9.523l9.523,9.523Z" style="fill:#092f46;fill-rule:nonzero;"/><path d="M135.882,48.754l-8.362,0l4.181,-4.18l4.181,4.18Z" style="fill:#259ebc;fill-rule:nonzero;"/><path d="M112.653,39.231l9.524,-9.524l9.524,9.524l-9.524,9.524l-9.524,-9.524Z" style="fill:#91cae6;fill-rule:nonzero;"/><path d="M122.177,48.754l-0.033,-9.523l9.558,-0l-9.525,9.523Z" style="fill:#f6851f;fill-rule:nonzero;"/><path d="M122.178,29.707l-0.034,9.524l-9.491,-0l9.525,-9.524Z" style="fill:#f6851f;fill-rule:nonzero;"/><path d="M122.177,29.686l-9.524,9.523l-9.523,-9.523l0.026,-0.026l18.987,0l0,-0.008l0.034,0.034Z" style="fill:#092f46;fill-rule:nonzero;"/><path d="M122.143,29.652l0,0.008l-18.987,0l9.497,-9.497l9.49,9.489Z" style="fill:#fff;fill-rule:nonzero;"/><path d="M108.472,29.686l4.181,-4.181l4.181,4.181l-4.181,4.181l-4.181,-4.181Z" style="fill:#259ebc;fill-rule:nonzero;"/><path d="M131.702,67.806c5.259,-0 9.523,-4.265 9.523,-9.524l-19.047,0c0,5.259 4.263,9.524 9.524,9.524Z" style="fill:#fdb614;fill-rule:nonzero;"/><rect x="122.178" y="48.755" width="19.047" height="9.528" style="fill:#91cae6;fill-rule:nonzero;"/><path d="M131.68,63.578c-2.938,-0 -5.321,-2.382 -5.321,-5.321c0,-2.939 2.383,-5.321 5.321,-5.321c2.939,-0 5.322,2.382 5.322,5.321c-0,2.939 -2.383,5.321 -5.322,5.321Z" style="fill:#f6851f;fill-rule:nonzero;"/><rect x="84.084" y="58.288" width="38.059" height="9.266" style="fill:#f6851f;fill-rule:nonzero;"/><path d="M122.127,58.273l0,0.015l-37.995,-0l19.005,-19.006l18.99,18.991Z" style="fill:#fff;fill-rule:nonzero;"/><path d="M93.888,58.288l9.242,-9.242l9.241,9.242l-9.241,9.242l-9.242,-9.242Z" style="fill:#259ebc;fill-rule:nonzero;"/><rect x="122.144" y="1.18" width="9.643" height="28.481" style="fill:#f6851f;fill-rule:nonzero;"/><path d="M129.961,5.969c0,1.661 -1.347,3.008 -3.008,3.008c-1.661,-0 -3.008,-1.347 -3.008,-3.008c-0,-1.662 1.347,-3.009 3.008,-3.009c1.661,0 3.008,1.347 3.008,3.009Z" style="fill:#fdb614;fill-rule:nonzero;"/><path d="M129.961,15.42c0,1.662 -1.347,3.008 -3.008,3.008c-1.661,0 -3.008,-1.346 -3.008,-3.008c-0,-1.661 1.347,-3.008 3.008,-3.008c1.661,-0 3.008,1.347 3.008,3.008Z" style="fill:#fdb614;fill-rule:nonzero;"/><path d="M129.961,24.872c0,1.661 -1.347,3.008 -3.008,3.008c-1.661,-0 -3.008,-1.347 -3.008,-3.008c-0,-1.662 1.347,-3.009 3.008,-3.009c1.661,0 3.008,1.347 3.008,3.009Z" style="fill:#fdb614;fill-rule:nonzero;"/><rect x="84.084" y="67.554" width="28.481" height="9.643" style="fill:#91cae6;fill-rule:nonzero;"/><path d="M88.873,69.417c1.662,0 3.009,1.347 3.009,3.009c-0,1.661 -1.347,3.008 -3.009,3.008c-1.661,-0 -3.008,-1.347 -3.008,-3.008c0,-1.662 1.347,-3.009 3.008,-3.009Z" style="fill:#fff;fill-rule:nonzero;"/><path d="M98.325,69.417c1.661,0 3.008,1.347 3.008,3.009c0,1.661 -1.347,3.008 -3.008,3.008c-1.662,-0 -3.009,-1.347 -3.009,-3.008c0,-1.662 1.347,-3.009 3.009,-3.009Z" style="fill:#fff;fill-rule:nonzero;"/><path d="M107.776,69.417c1.662,0 3.009,1.347 3.009,3.009c-0,1.661 -1.347,3.008 -3.009,3.008c-1.661,-0 -3.008,-1.347 -3.008,-3.008c0,-1.662 1.347,-3.009 3.008,-3.009Z" style="fill:#092f46;fill-rule:nonzero;"/><path d="M93.22,67.562l-9.136,-9.274l0.009,9.249l9.127,0.025Z" style="fill:#fdb614;fill-rule:nonzero;"/><rect x="112.565" y="67.53" width="9.575" height="9.667" style="fill:#f6851f;fill-rule:nonzero;"/><path d="M112.606,67.53l9.538,9.667l-0.01,-9.641l-9.528,-0.026Z" style="fill:#fdb614;fill-rule:nonzero;"/><path d="M122.119,29.669l19.078,19.077l-0,-19.077l-19.078,-0Z" style="fill:#fff;fill-rule:nonzero;"/><rect x="84.084" y="1.179" width="19.067" height="19.004" style="fill:#fdb614;fill-rule:nonzero;"/><path d="M103.151,10.73l0,9.451l-9.503,-0c0.029,-5.224 4.272,-9.451 9.503,-9.451Z" style="fill:#092f46;fill-rule:nonzero;"/><path d="M103.149,15.485l-0,4.698l-4.749,-0c0.027,-2.6 2.142,-4.698 4.749,-4.698Z" style="fill:#91cae6;fill-rule:nonzero;"/><path d="M84.084,1.179c5.297,0 9.591,4.294 9.591,9.591l-0,9.414l-9.591,-0l0,-19.005Z" style="fill:#259ebc;fill-rule:nonzero;"/><path d="M101.408,5.969c0,1.661 -1.347,3.008 -3.008,3.008c-1.662,-0 -3.009,-1.347 -3.009,-3.008c0,-1.662 1.347,-3.009 3.009,-3.009c1.661,0 3.008,1.347 3.008,3.009Z" style="fill:#f6851f;fill-rule:nonzero;"/><path d="M122.2,10.703l-9.524,9.523l-9.523,-9.523l0.026,-0.026l18.988,0l-0,-0.008l0.033,0.034Z" style="fill:#259ebc;fill-rule:nonzero;"/><path d="M122.167,10.669l-0,0.008l-18.988,0l9.497,-9.498l9.491,9.49Z" style="fill:#092f46;fill-rule:nonzero;"/><path d="M108.496,10.703l4.181,-4.181l4.181,4.181l-4.181,4.181l-4.181,-4.181Z" style="fill:#fdb614;fill-rule:nonzero;"/><path d="M129.868,72.46c0,1.662 -1.347,3.009 -3.008,3.009c-1.661,-0 -3.008,-1.347 -3.008,-3.009c-0,-1.661 1.347,-3.008 3.008,-3.008c1.661,0 3.008,1.347 3.008,3.008Z" style="fill:#91cae6;fill-rule:nonzero;"/><path d="M103.198,29.707c0,5.259 -4.264,9.524 -9.523,9.524l-0,-19.047c5.259,-0 9.523,4.263 9.523,9.523Z" style="fill:#259ebc;fill-rule:nonzero;"/><rect x="84.084" y="20.184" width="9.59" height="19.047" style="fill:#f6851f;fill-rule:nonzero;"/><path d="M98.97,29.686c0,-2.939 -2.382,-5.321 -5.321,-5.321c-2.939,-0 -5.321,2.382 -5.321,5.321c-0,2.939 2.382,5.321 5.321,5.321c2.939,0 5.321,-2.382 5.321,-5.321Z" style="fill:#91cae6;fill-rule:nonzero;"/></g></g></g><g><g><g><rect x="84.094" y="76.861" width="114.027" height="76.018" style="fill:#fff;fill-rule:nonzero;"/><rect x="103.177" y="76.942" width="18.968" height="9.439" style="fill:#91cae6;fill-rule:nonzero;"/><rect x="84.063" y="114.943" width="38.059" height="19.057" style="fill:#092f46;fill-rule:nonzero;"/><rect x="103.13" y="95.896" width="18.993" height="19.047" style="fill:#fdb614;fill-rule:nonzero;"/><path d="M141.204,124.466l-19.049,0l9.525,-9.523l9.524,9.523Z" style="fill:#092f46;fill-rule:nonzero;"/><path d="M135.861,124.466l-8.362,0l4.181,-4.18l4.181,4.18Z" style="fill:#259ebc;fill-rule:nonzero;"/><path d="M112.632,114.943l9.524,-9.524l9.524,9.524l-9.524,9.524l-9.524,-9.524Z" style="fill:#91cae6;fill-rule:nonzero;"/><path d="M122.155,124.466l-0.033,-9.523l9.558,-0l-9.525,9.523Z" style="fill:#f6851f;fill-rule:nonzero;"/><path d="M122.157,105.419l-0.035,9.524l-9.49,-0l9.525,-9.524Z" style="fill:#f6851f;fill-rule:nonzero;"/><path d="M122.155,105.398l-9.523,9.523l-9.524,-9.523l0.026,-0.026l18.988,0l-0,-0.008l0.033,0.034Z" style="fill:#f6851f;fill-rule:nonzero;"/><path d="M122.122,105.364l-0,0.008l-18.988,0l9.498,-9.497l9.49,9.489Z" style="fill:#fff;fill-rule:nonzero;"/><path d="M108.451,105.398l4.181,-4.181l4.181,4.181l-4.181,4.181l-4.181,-4.181Z" style="fill:#259ebc;fill-rule:nonzero;"/><rect x="122.157" y="124.467" width="19.047" height="9.528" style="fill:#91cae6;fill-rule:nonzero;"/><path d="M131.659,139.29c-2.939,-0 -5.321,-2.382 -5.321,-5.321c-0,-2.939 2.382,-5.321 5.321,-5.321c2.939,-0 5.321,2.382 5.321,5.321c0,2.939 -2.382,5.321 -5.321,5.321Z" style="fill:#f6851f;fill-rule:nonzero;"/><path d="M122.106,133.985l0,0.015l-37.995,-0l19.005,-19.006l18.99,18.991Z" style="fill:#fff;fill-rule:nonzero;"/><path d="M93.867,134l9.241,-9.242l9.242,9.242l-9.242,9.242l-9.241,-9.242Z" style="fill:#259ebc;fill-rule:nonzero;"/><rect x="122.122" y="76.892" width="9.643" height="28.481" style="fill:#f6851f;fill-rule:nonzero;"/><path d="M129.94,81.681c0,1.661 -1.347,3.008 -3.008,3.008c-1.662,-0 -3.009,-1.347 -3.009,-3.008c0,-1.662 1.347,-3.009 3.009,-3.009c1.661,0 3.008,1.347 3.008,3.009Z" style="fill:#fdb614;fill-rule:nonzero;"/><path d="M129.94,91.132c0,1.662 -1.347,3.008 -3.008,3.008c-1.662,0 -3.009,-1.346 -3.009,-3.008c0,-1.661 1.347,-3.008 3.009,-3.008c1.661,-0 3.008,1.347 3.008,3.008Z" style="fill:#fdb614;fill-rule:nonzero;"/><path d="M129.94,100.584c0,1.661 -1.347,3.008 -3.008,3.008c-1.662,-0 -3.009,-1.347 -3.009,-3.008c0,-1.662 1.347,-3.009 3.009,-3.009c1.661,0 3.008,1.347 3.008,3.009Z" style="fill:#fdb614;fill-rule:nonzero;"/><path d="M122.098,105.381l19.077,19.078l0,-19.078l-19.077,-0Z" style="fill:#fff;fill-rule:nonzero;"/><rect x="84.063" y="76.891" width="19.067" height="19.004" style="fill:#fdb614;fill-rule:nonzero;"/><path d="M103.13,86.442l-0,9.451l-9.503,-0c0.029,-5.224 4.272,-9.451 9.503,-9.451Z" style="fill:#f6851f;fill-rule:nonzero;"/><path d="M103.127,91.197l0,4.698l-4.749,-0c0.027,-2.6 2.142,-4.698 4.749,-4.698Z" style="fill:#91cae6;fill-rule:nonzero;"/><path d="M84.063,76.891c5.297,0 9.59,4.294 9.59,9.591l0,9.414l-9.59,-0l-0,-19.005Z" style="fill:#259ebc;fill-rule:nonzero;"/><path d="M101.387,81.681c-0,1.661 -1.347,3.008 -3.009,3.008c-1.661,-0 -3.008,-1.347 -3.008,-3.008c0,-1.662 1.347,-3.009 3.008,-3.009c1.662,0 3.009,1.347 3.009,3.009Z" style="fill:#f6851f;fill-rule:nonzero;"/><path d="M122.179,86.415l-9.524,9.523l-9.523,-9.523l0.025,-0.026l18.988,0l0,-0.008l0.034,0.034Z" style="fill:#259ebc;fill-rule:nonzero;"/><path d="M122.145,86.381l0,0.008l-18.988,0l9.498,-9.498l9.49,9.49Z" style="fill:#092f46;fill-rule:nonzero;"/><path d="M108.474,86.415l4.181,-4.181l4.181,4.181l-4.181,4.181l-4.181,-4.181Z" style="fill:#fdb614;fill-rule:nonzero;"/><path d="M103.177,105.419c-0,5.259 -4.265,9.524 -9.524,9.524l0,-19.047c5.259,-0 9.524,4.263 9.524,9.523Z" style="fill:#259ebc;fill-rule:nonzero;"/><rect x="84.063" y="95.896" width="9.59" height="19.047" style="fill:#f6851f;fill-rule:nonzero;"/><path d="M98.949,105.398c-0,-2.939 -2.383,-5.321 -5.321,-5.321c-2.939,-0 -5.322,2.382 -5.322,5.321c0,2.939 2.383,5.321 5.322,5.321c2.938,0 5.321,-2.382 5.321,-5.321Z" style="fill:#fff;fill-rule:nonzero;"/></g></g></g></g></g></g></svg>